<?xml version="1.0" encoding="UTF-8"?>
<svg id="Layer_1" data-name="Layer 1" xmlns="http://www.w3.org/2000/svg" viewBox="0 0 458.29 455.6">
  <path d="M289.93,331.35c22.87,0,41.42-18.54,41.42-41.42h0c0-22.87-18.54-41.42-41.42-41.42h-123.08c-47.47,0-86.14-39.35-83.92-86.77,2.05-43.92,38.31-78.9,82.75-78.9h124.26c22.87,0,41.42-18.54,41.42-41.42h0c0-22.87-18.54-41.42-41.42-41.42h-124.26c-30.18,0-58.47,8.07-82.84,22.17-25.15,14.55-46.12,35.52-60.67,60.67C8.07,107.2,0,135.5,0,165.67s8.07,58.47,22.17,82.84c14.55,25.15,35.52,46.12,60.67,60.67,24.36,14.1,52.66,22.17,82.84,22.17h124.26Z"/>
  <path d="M436.13,207.09c-14.55-25.15-35.52-46.12-60.67-60.67-24.36-14.1-52.66-22.17-82.84-22.17h-124.26c-22.87,0-41.42,18.54-41.42,41.42h0c0,22.87,18.54,41.42,41.42,41.42h124.26c44.43,0,80.69,34.98,82.75,78.9,2.22,47.42-36.45,86.77-83.92,86.77h-123.08c-22.87,0-41.42,18.54-41.42,41.42h0c0,22.87,18.54,41.42,41.42,41.42h124.26c30.18,0,58.47-8.07,82.84-22.17,25.15-14.55,46.12-35.52,60.67-60.67,14.1-24.36,22.17-52.66,22.17-82.84s-8.07-58.47-22.17-82.84Z"/>
</svg>